# AST/ASF file generated using VICON BodyLanguage
# -----------------------------------------------
:version 1.10
:name VICON
:units
  mass 1.0
  length 0.45
  angle deg
:documentation
   .ast/.asf automatically generated from VICON data using
   VICON BodyBuilder and BodyLanguage model FoxedUp or BRILLIANT.MOD
:root
   order TX TY TZ RX RY RZ
   axis XYZ
   position 0 0 0  
   orientation 0 0 0 
:bonedata
  begin
     id 1 
     name lhipjoint
     direction 0.690799 -0.707083 0.151096 
     length 2.54797 
     axis 0 0 0  XYZ
  end
  begin
     id 2 
     name lfemur
     direction 0.34202 -0.939693 0  
     length 7.21646  
     axis 0 0 20  XYZ
    dof rx ry rz
    limits (-160.0 20.0)
           (-70.0 70.0)
           (-60.0 70.0)
  end
  begin
     id 3 
     name ltibia
     direction 0.34202 -0.939693 0   
     length 8.16759   
     axis 0 0 20   XYZ
    dof rx
    limits (-10.0 170.0)
  end
  begin
     id 4 
     name lfoot
     direction 0.0487203 -0.133858 0.989802   
     length 1.93375   
     axis -90 7.62852e-016 20   XYZ
    dof rx rz
    limits (-45.0 90.0)
           (-70.0 20.0)
  end
  begin
     id 5 
     name ltoes
     direction 1.53453e-011 -4.21783e-011 1   
     length 0.979747   
     axis -90 7.62852e-016 20   XYZ
    dof rx
    limits (-90.0 20.0)
  end
  begin
     id 6 
     name rhipjoint
     direction -0.694693 -0.703425 0.150315   
     length 2.56122  
     axis 0 0 0  XYZ 
  end
  begin
     id 7 
     name rfemur
     direction -0.34202 -0.939693 0   
     length 7.36786   
     axis 0 0 -20   XYZ
    dof rx ry rz
    limits (-160.0 20.0)
           (-70.0 70.0)
           (-70.0 60.0)
  end
  begin
     id 8 
     name rtibia
     direction -0.34202 -0.939693 0   
     length 8.07288   
     axis 0 0 -20   XYZ
    dof rx
    limits (-10.0 170.0)
 end
 begin
     id 9 
     name rfoot
     direction -0.0428397 -0.117701 0.992125   
     length 1.88295  
     axis -90 -7.62852e-016 -20   XYZ
    dof rx rz
    limits (-45.0 90.0)
           (-20.0 70.0)
  end
  begin
     id 10 
     name rtoes
     direction -1.53456e-011 -4.2187e-011 1   
     length 0.955578   
     axis -90 -7.62852e-016 -20   XYZ
    dof rx
    limits (-90.0 20.0)
  end
  begin
     id 11 
     name lowerback
     direction 0.0288145 0.999398 -0.0193241   
     length 1.92149   
     axis 0 0 0   XYZ
    dof rx ry rz
    limits (-20.0 45.0)
           (-30.0 30.0)
           (-30.0 30.0)
  end
  begin
     id 12 
     name upperback
     direction 0.0233784 0.998099 0.0570278   
     length 1.90435   
     axis 0 0 0   XYZ
    dof rx ry rz
    limits (-20.0 45.0)
           (-30.0 30.0)
           (-30.0 30.0)
  end
  begin
     id 13 
     name thorax
     direction 0.0096694 0.997833 0.0650817   
     length 1.9111   
     axis 0 0 0   XYZ
    dof rx ry rz
    limits (-20.0 45.0)
           (-30.0 30.0)
           (-30.0 30.0)
  end
  begin
     id 14 
     name lowerneck
     direction 0.00516803 0.999916 0.0118722   
     length 1.74664   
     axis 0 0 0   XYZ
    dof rx ry rz
    limits (-20.0 45.0)
           (-30.0 30.0)
           (-30.0 30.0)
  end
  begin
     id 15 
     name upperneck
     direction -0.0510851 0.996117 -0.071696   
     length 1.68498   
     axis 0 0 0   XYZ
    dof rx ry rz
    limits (-20.0 45.0)
           (-30.0 30.0)
           (-30.0 30.0)
  end
  begin
     id 16
     name head
     direction -0.019188 0.999436 -0.0275702  
     length 1.83483  
     axis 0 0 0   XYZ
    dof rx ry rz
    limits (-20.0 45.0)
           (-30.0 30.0)
           (-30.0 30.0)
  end
  begin
     id 17 
     name lclavicle
     direction 0.967006 0.248456 -0.0562957  
     length 3.39395  
     axis 0 0 0   XYZ
    dof ry rz
    limits (-20.0 10.0)
           (0.0 20.0)
  end
  begin
     id 18 
     name lhumerus
     direction 1 -4.48962e-011 -5.62711e-019   
     length 5.24318   
     axis 180 -30 -90   XYZ
    dof rx ry rz
    limits (-60.0 90.0)
           (-90.0 90.0)
           (-90.0 90.0)
  end
  begin
     id 19
     name lradius
     direction 1 -4.48966e-011 7.90625e-027   
     length 2.98999   
     axis 180 -30 -90   XYZ
    dof rx
    limits (-10.0 170.0)
  end
  begin
     id 20
     name lwrist
     direction 1 -4.48959e-011 1.61068e-026   
     length 1.49499   
     axis -9.31229e-015 90 90   XYZ
    dof ry
    limits (-180.0 0.0)
 end
  begin
     id 21 
     name lhand
     direction 1 -4.49017e-011 3.22136e-026   
     length 0.726745   
     axis -2.0555e-014 90 90   XYZ
    dof rx rz
    limits (-90.0 90.0)
           (-45.0 45.0)
  end
  begin
     id 22 
     name lfingers
     direction 1 -4.4898e-011 6.44272e-026   
     length 0.58592   
     axis -4.11101e-014 90 90   XYZ
    dof rx
    limits (0.0 90.0)
  end
  begin
     id 23
     name lthumb
     direction 0.707107 -6.34922e-011 0.707107   
     length 0.841268   
     axis -90 45 2.85299e-015   XYZ
    dof rx rz
    limits (-45.0 45.0)
           (-45.0 45.0)
  end
  begin
     id 24 
     name rclavicle
     direction -0.972232 0.230238 0.0419005   
     length 3.40416  
     axis 0 0 0   XYZ 
    dof ry rz
    limits (-10.0 20.0)
           (-20.0 0.0)
  end
  begin
     id 25 
     name rhumerus
     direction -1 -4.48976e-011 2.48487e-027  
     length 5.37045   
     axis 180 30 90   XYZ
    dof rx ry rz
    limits (-90.0 60.0)
           (-90.0 90.0)
           (-90.0 90.0)
  end
  begin
     id 26 
     name rradius
     direction -1 -4.48942e-011 7.87951e-027   
     length 2.92792   
     axis 180 30 90   XYZ
    dof rx
    limits (-10.0 170.0)
  end
  begin
     id 27 
     name rwrist
     direction -1 -4.48969e-011 1.61068e-026   
     length 1.46396   
     axis -9.31229e-015 -90 -90   XYZ
    dof ry
    limits (-180.0 0.0)
  end
  begin
     id 28
     name rhand
     direction -1 -4.49043e-011 3.22136e-026   
     length 0.784497   
     axis -2.0555e-014 -90 -90   XYZ
    dof rx rz
    limits (-90.0 90.0)
           (-45.0 45.0)
  end
  begin
     id 29
     name rfingers
     direction -1 -4.48823e-011 6.44272e-026   
     length 0.632482   
     axis -4.11101e-014 -90 -90   XYZ
    dof rx
    limits (0.0 90.0)
  end
  begin
     id 30
     name rthumb
     direction -0.707107 -6.34923e-011 0.707107   
     length 0.908121   
     axis -90 -45 -2.85299e-015   XYZ
    dof rx rz
    limits (-45.0 45.0)
           (-45.0 45.0)
  end
:hierarchy
  begin
    root lhipjoint rhipjoint lowerback
    lhipjoint lfemur
    lfemur ltibia
    ltibia lfoot
    lfoot ltoes
    rhipjoint rfemur
    rfemur rtibia
    rtibia rfoot
    rfoot rtoes
    lowerback upperback
    upperback thorax
    thorax lowerneck lclavicle rclavicle
    lowerneck upperneck
    upperneck head
    lclavicle lhumerus
    lhumerus lradius
    lradius lwrist
    lwrist lhand lthumb
    lhand lfingers
    rclavicle rhumerus
    rhumerus rradius
    rradius rwrist
    rwrist rhand rthumb
    rhand rfingers
  end

#!OML:ASF E:\Style6\Style6.ASF
:FULLY-SPECIFIED
:DEGREES
1833
root 0.517638 17.2953 -1.43411 29.6359 -10.7032 6.10872
lowerback 14.9872 -2.68997 2.63274
upperback 9.84912 -3.23754 3.75355
thorax 2.14295 -1.62791 2.87271
lowerneck 4.77133 11.2063 -3.77659
upperneck 7.26092 15.3646 -13.0586
head 2.42159 7.37982 -3.49651
rclavicle -2.54444e-014 -7.95139e-015
rhumerus 16.2268 11.359 -76.4932
rradius 31.7654
rwrist 33.9668
rhand -4.59417 9.28948
rfingers 7.12502
rthumb 21.1833 -19.5731
lclavicle -2.54444e-014 -7.95139e-015
lhumerus 78.427 -19.766 50.257
lradius 22.1086
lwrist -19.1382
lhand 4.72531 18.1532
lfingers 7.12502
lthumb 30.1079 45.7208
rfemur -62.4387 -6.62693 15.7521
rtibia 40.8779
rfoot -3.44321 0.714581
rtoes -14.7854
lfemur -55.4589 9.8386 -32.2445
ltibia 37.7753
lfoot -8.00451 0.603834
ltoes -20.695
1834
root 0.522197 17.2944 -1.43467 29.639 -10.8181 6.1389
lowerback 14.9761 -2.76048 2.54157
upperback 9.785 -3.33705 3.81914
thorax 2.09257 -1.68397 3.00657
lowerneck 5.03227 11.2835 -3.95941
upperneck 7.07395 15.4074 -13.063
head 2.30074 7.41825 -3.48885
rclavicle -1.90833e-014 -9.54166e-015
rhumerus 16.1418 11.49 -76.524
rradius 31.7815
rwrist 33.9044
rhand -4.63989 9.51828
rfingers 7.12502
rthumb 21.1394 -19.3493
lclavicle -1.90833e-014 -9.54166e-015
lhumerus 78.2382 -19.7081 50.1569
lradius 22.1671
lwrist -18.9628
lhand 4.78253 18.1241
lfingers 7.12502
lthumb 30.1625 45.6818
rfemur -62.4764 -6.62193 15.7013
rtibia 40.8685
rfoot -3.44761 0.785687
rtoes -14.1501
lfemur -55.4618 9.85939 -32.3168
ltibia 37.7673
lfoot -7.98146 0.649991
ltoes -20.566
1835
root 0.526567 17.2911 -1.4368 29.6244 -10.9426 6.16802
lowerback 14.9272 -2.69989 2.65953
upperback 9.86386 -3.25278 3.70136
thorax 2.18587 -1.6328 2.80126
lowerneck 4.71112 11.185 -3.53235
upperneck 7.17692 15.3446 -13.0686
head 2.4231 7.37899 -3.53731
rclavicle 1.98785e-014 2.3059e-014
rhumerus 16.1762 10.8695 -76.7873
rradius 31.7715
rwrist 34.0788
rhand -4.63805 9.55328
rfingers 7.12502
rthumb 21.1411 -19.3141
lclavicle 1.98785e-014 2.3059e-014
lhumerus 78.6384 -19.9092 49.621
lradius 22.3335
lwrist -18.6104
lhand 4.95232 18.1659
lfingers 7.12502
lthumb 30.3245 45.6939
rfemur -62.5129 -6.59162 15.6393
rtibia 40.882
rfoot -3.43007 0.81456
rtoes -13.5871
lfemur -55.4684 9.86936 -32.3711
ltibia 37.7807
lfoot -7.97663 0.725275
ltoes -20.3778
1836
root 0.53125 17.2898 -1.43816 29.577 -11.1106 6.21937
lowerback 14.9298 -2.69342 2.63679
upperback 9.8885 -3.24911 3.67274
thorax 2.21014 -1.63146 2.78293
lowerneck 4.54841 11.1662 -3.49342
upperneck 7.26793 15.3459 -13.0299
head 2.48175 7.36903 -3.51795
rclavicle -2.06736e-014 -5.56597e-015
rhumerus 16.2303 10.7568 -76.8255
rradius 31.7705
rwrist 34.0834
rhand -4.61384 9.31253
rfingers 7.12502
rthumb 21.1644 -19.5522
lclavicle -2.06736e-014 -5.56597e-015
lhumerus 78.634 -19.9694 49.7866
lradius 22.3262
lwrist -18.7199
lhand 5.05457 18.0492
lfingers 7.12502
lthumb 30.422 45.5592
rfemur -62.5261 -6.56405 15.5555
rtibia 40.8872
rfoot -3.40887 0.919888
rtoes -13.6384
lfemur -55.4374 9.90461 -32.4597
ltibia 37.794
lfoot -7.98894 0.81252
ltoes -20.5695
1837
root 0.536014 17.2891 -1.43921 29.538 -11.2615 6.26964
lowerback 14.9996 -2.71363 2.5085
upperback 9.86348 -3.28566 3.7417
thorax 2.15927 -1.65855 2.93621
lowerneck 4.43207 11.1693 -3.63848
upperneck 7.38619 15.3689 -13.0266
head 2.53169 7.36478 -3.48319
rclavicle 2.46493e-014 2.8625e-014
rhumerus 16.2948 10.8622 -76.7431
rradius 31.7119
rwrist 34.015
rhand -4.62754 9.16641
rfingers 7.12502
rthumb 21.1512 -19.6998
lclavicle 2.46493e-014 2.8625e-014
lhumerus 78.5078 -19.9434 49.9487
lradius 22.3179
lwrist -18.7246
lhand 5.07421 17.9789
lfingers 7.12502
lthumb 30.4408 45.4855
rfemur -62.5427 -6.55601 15.4906
rtibia 40.8719
rfoot -3.35459 1.01232
rtoes -14.5286
lfemur -55.4041 9.91216 -32.5377
ltibia 37.8089
lfoot -7.98985 0.924419
ltoes -20.6036
1838
root 0.541418 17.2913 -1.43824 29.4936 -11.361 6.24719
lowerback 15.078 -2.73333 2.48998
upperback 9.84702 -3.30904 3.81014
thorax 2.10716 -1.6739 3.02624
lowerneck 4.38368 11.1541 -3.71341
upperneck 7.43978 15.3546 -13.0012
head 2.54869 7.35057 -3.45868
rclavicle -4.77083e-015 -2.54444e-014
rhumerus 16.2934 10.8741 -76.7097
rradius 31.6842
rwrist 34.0276
rhand -4.58256 9.18387
rfingers 7.12502
rthumb 21.1945 -19.6775
lclavicle -4.77083e-015 -2.54444e-014
lhumerus 78.5513 -19.9686 49.585
lradius 22.3869
lwrist -18.2481
lhand 4.97176 18.0465
lfingers 7.12502
lthumb 30.343 45.5711
rfemur -62.4944 -6.57116 15.532
rtibia 40.8211
rfoot -3.34612 1.13784
rtoes -14.8756
lfemur -55.3493 9.95578 -32.5407
ltibia 37.8289
lfoot -8.01976 0.981246
ltoes -20.4829
1839
root 0.545801 17.2961 -1.43759 29.4464 -11.447 6.15317
lowerback 15.1166 -2.7512 2.56528
upperback 9.84884 -3.32262 3.86498
thorax 2.0895 -1.67963 3.0457
lowerneck 4.31684 11.1569 -3.76246
upperneck 7.52538 15.3664 -12.9119
head 2.577 7.34781 -3.41418
rclavicle -3.33958e-014 -2.06736e-014
rhumerus 16.2263 10.8356 -76.722
rradius 31.7578
rwrist 34.0459
rhand -4.45847 9.2806
rfingers 7.12502
rthumb 21.3136 -19.5674
lclavicle -3.33958e-014 -2.06736e-014
lhumerus 78.4911 -20.016 49.5782
lradius 22.4087
lwrist -18.1774
lhand 4.93465 18.0765
lfingers 7.12502
lthumb 30.3076 45.6077
rfemur -62.4076 -6.547 15.6486
rtibia 40.7508
rfoot -3.31119 1.24725
rtoes -14.5798
lfemur -55.281 10.01 -32.4396
ltibia 37.8553
lfoot -8.05356 1.07811
ltoes -20.0845
1840
root 0.549724 17.2974 -1.43781 29.4157 -11.5886 6.03413
lowerback 15.1206 -2.74576 2.67631
upperback 9.86624 -3.30512 3.88397
thorax 2.10119 -1.66716 3.00112
lowerneck 4.30369 11.1672 -3.76714
upperneck 7.53309 15.3809 -12.8977
head 2.58096 7.35401 -3.40726
rclavicle -1.59028e-014 6.67916e-014
rhumerus 16.1833 10.758 -76.7475
rradius 31.8066
rwrist 34.0013
rhand -4.53238 9.40928
rfingers 7.12502
rthumb 21.2426 -19.4467
lclavicle -1.59028e-014 6.67916e-014
lhumerus 78.3976 -20.0892 49.8149
lradius 22.3726
lwrist -18.3593
lhand 4.92236 18.0605
lfingers 7.12502
lthumb 30.2959 45.5938
rfemur -62.3524 -6.43118 15.7382
rtibia 40.6817
rfoot -3.26241 1.30401
rtoes -14.5627
lfemur -55.2576 10.1244 -32.3624
ltibia 37.8867
lfoot -8.09351 1.19018
ltoes -20.2036
1841
root 0.554068 17.2963 -1.43714 29.3796 -11.768 6.02355
lowerback 15.0997 -2.73187 2.70195
upperback 9.88792 -3.28798 3.86581
thorax 2.13232 -1.65735 2.96378
lowerneck 4.34116 11.159 -3.75097
upperneck 7.46757 15.3623 -12.9423
head 2.55676 7.35041 -3.42911
rclavicle 6.67916e-014 -3.97569e-015
rhumerus 16.1919 10.6689 -76.7665
rradius 31.8019
rwrist 33.9291
rhand -4.65854 9.4447
rfingers 7.12502
rthumb 21.1215 -19.4249
lclavicle 6.67916e-014 -3.97569e-015
lhumerus 78.4852 -20.1817 49.5186
lradius 22.4707
lwrist -18.0433
lhand 4.94279 18.142
lfingers 7.12502
lthumb 30.3154 45.6717
rfemur -62.3273 -6.32555 15.6695
rtibia 40.6229
rfoot -3.21177 1.38383
rtoes -14.2289
lfemur -55.2324 10.2098 -32.4083
ltibia 37.9256
lfoot -8.12139 1.26628
ltoes -20.393
1842
root 0.559126 17.2968 -1.43503 29.2736 -11.9426 6.084
lowerback 15.1734 -2.72902 2.60637
upperback 9.89639 -3.29275 3.88498
thorax 2.10934 -1.66552 3.04178
lowerneck 4.24664 11.142 -3.77117
upperneck 7.57427 15.3629 -12.9685
head 2.61112 7.33927 -3.42678
rclavicle 5.00937e-014 -7.95139e-015
rhumerus 16.1725 10.8085 -76.605
rradius 31.8978
rwrist 33.7921
rhand -4.59041 9.31836
rfingers 7.12502
rthumb 21.1869 -19.5439
lclavicle 5.00937e-014 -7.95139e-015
lhumerus 78.4333 -20.2233 49.6551
lradius 22.4849
lwrist -18.0535
lhand 5.1517 18.1242
lfingers 7.12502
lthumb 30.5147 45.6171
rfemur -62.2467 -6.28339 15.5426
rtibia 40.5947
rfoot -3.19849 1.50254
rtoes -13.8894
lfemur -55.1403 10.278 -32.5125
ltibia 37.9749
lfoot -8.18224 1.33773
ltoes -20.4985
1843
root 0.564768 17.2977 -1.43436 29.2148 -12.0227 6.00489
lowerback 15.2414 -2.73888 2.65512
upperback 9.90231 -3.2975 3.96238
thorax 2.08346 -1.66899 3.10029
lowerneck 4.09828 11.1213 -3.84134
upperneck 7.71106 15.3597 -12.9059
head 2.67149 7.32199 -3.3823
rclavicle -2.38542e-015 -2.46493e-014
rhumerus 16.1559 10.7655 -76.5467
rradius 31.9275
rwrist 33.877
rhand -4.45926 9.26493
rfingers 7.12502
rthumb 21.3129 -19.5831
lclavicle -2.38542e-015 -2.46493e-014
lhumerus 78.3001 -20.2521 50.2254
lradius 22.3667
lwrist -18.4537
lhand 5.40538 17.9477
lfingers 7.12502
lthumb 30.7566 45.3953
rfemur -62.1864 -6.17044 15.5503
rtibia 40.6111
rfoot -3.20001 1.50153
rtoes -14.6648
lfemur -55.0995 10.3499 -32.4509
ltibia 38.0337
lfoot -8.20618 1.38504
ltoes -20.1686
1844
root 0.570071 17.2958 -1.4328 29.1833 -12.0678 5.95035
lowerback 15.2253 -2.77477 2.71479
upperback 9.91245 -3.33934 4.02622
thorax 2.10604 -1.68961 3.13878
lowerneck 4.13882 11.115 -3.92228
upperneck 7.6724 15.338 -12.8937
head 2.64167 7.31321 -3.369
rclavicle 5.64548e-014 -2.3059e-014
rhumerus 16.1303 10.7403 -76.5256
rradius 32.0085
rwrist 33.8743
rhand -4.3129 9.23871
rfingers 7.12502
rthumb 21.4535 -19.5934
lclavicle 5.64548e-014 -2.3059e-014
lhumerus 78.2345 -20.2822 50.5531
lradius 22.2848
lwrist -18.6773
lhand 5.42842 17.8568
lfingers 7.12502
lthumb 30.7785 45.3002
rfemur -62.1671 -6.02244 15.4883
rtibia 40.6656
rfoot -3.23086 1.37693
rtoes -15.7069
lfemur -55.0839 10.3365 -32.3766
ltibia 38.1068
lfoot -8.2393 1.47213
ltoes -20.0424
1845
root 0.574266 17.2885 -1.43132 29.1291 -12.2101 6.09903
lowerback 15.1784 -2.81453 2.56476
upperback 9.92676 -3.41216 4.01816
thorax 2.15644 -1.73274 3.22096
lowerneck 4.34556 11.1663 -4.05511
upperneck 7.46691 15.3561 -12.9228
head 2.52809 7.33982 -3.37424
rclavicle -2.14687e-014 -3.89618e-014
rhumerus 15.9998 10.8605 -76.4534
rradius 32.434
rwrist 33.6276
rhand -4.07715 9.18224
rfingers 7.12502
rthumb 21.6799 -19.6239
lclavicle -2.14687e-014 -3.89618e-014
lhumerus 78.2142 -20.2726 50.5502
lradius 22.276
lwrist -18.6514
lhand 5.40133 17.848
lfingers 7.12502
lthumb 30.7527 45.2963
rfemur -62.2147 -5.94296 15.2137
rtibia 40.7579
rfoot -3.26313 1.30966
rtoes -15.6398
lfemur -55.0646 10.2756 -32.53
ltibia 38.1716
lfoot -8.29142 1.61102
ltoes -20.2674
1846
root 0.578787 17.2818 -1.43011 29.1311 -12.3531 6.16118
lowerback 15.0991 -2.83161 2.53235
upperback 9.9225 -3.44294 3.98681
thorax 2.19413 -1.74855 3.20574
lowerneck 4.44402 11.2091 -4.12777
upperneck 7.45676 15.3924 -12.8565
head 2.4968 7.36072 -3.34592
rclavicle -4.37326e-014 3.97569e-014
rhumerus 16.4325 11.0416 -76.3651
rradius 31.5225
rwrist 33.248
rhand -4.60878 9.37095
rfingers 7.12502
rthumb 21.1693 -19.4933
lclavicle -4.37326e-014 3.97569e-014
lhumerus 78.3295 -20.3444 50.0271
lradius 22.3804
lwrist -18.1972
lhand 5.42191 17.9826
lfingers 7.12502
lthumb 30.7723 45.4273
rfemur -62.3233 -5.88698 15.0837
rtibia 40.8681
rfoot -3.29827 1.34025
rtoes -15.4956
lfemur -55.088 10.2685 -32.6225
ltibia 38.1922
lfoot -8.31268 1.72259
ltoes -20.2158
1847
root 0.582865 17.2797 -1.43088 29.0887 -12.459 6.19141
lowerback 15.096 -2.8585 2.52335
upperback 9.93232 -3.48015 3.98332
thorax 2.2082 -1.76766 3.21147
lowerneck 4.23855 11.2142 -4.23418
upperneck 7.7514 15.4368 -12.6689
head 2.60784 7.35432 -3.24568
rclavicle 9.06458e-014 -8.18993e-014
rhumerus 16.4872 11.0151 -76.3891
rradius 31.4006
rwrist 33.2355
rhand -4.6964 9.38445
rfingers 7.12502
rthumb 21.0851 -19.4892
lclavicle 9.06458e-014 -8.18993e-014
lhumerus 78.4202 -20.3974 49.635
lradius 22.4584
lwrist -17.7696
lhand 5.421 18.1116
lfingers 7.12502
lthumb 30.7715 45.5564
rfemur -62.3615 -5.85298 15.0183
rtibia 40.9594
rfoot -3.31474 1.36439
rtoes -15.1143
lfemur -55.0575 10.3121 -32.6833
ltibia 38.1686
lfoot -8.30723 1.72155
ltoes -19.9801
